<?xml version="1.0" encoding="UTF-8"?>
<svg width="24px" height="24px" viewBox="0 0 24 24" version="1.1" xmlns="http://www.w3.org/2000/svg" xmlns:xlink="http://www.w3.org/1999/xlink">
    <!-- Generator: Sketch 42 (36781) - http://www.bohemiancoding.com/sketch -->
    <title>cancel</title>
    <desc>Created with Sketch.</desc>
    <defs></defs>
    <g id="Page-1" stroke="none" stroke-width="1" fill="none" fill-rule="evenodd">
        <g id="cancel" fill="#FF0000">
            <g id="Group">
                <path d="M12,24 L11.9999995,24 C5.37257948,23.9999997 -5.24536972e-07,18.62742 -5.24536972e-07,12 C-2.34842972e-07,5.37258 5.37257948,-1.42108547e-14 11.9999995,-1.42108547e-14 C18.6274195,2.89693986e-07 23.9999995,5.37258 23.9999995,12 L23.9999995,11.9999995 C23.9999995,18.6274195 18.6274195,23.9999995 11.9999995,23.9999995 L12,24 Z M12,2 L11.9999996,2 C6.47714956,2.00000024 1.99999956,6.47715 1.99999956,12 C1.9999998,17.52285 6.47714956,22 11.9999996,22 C17.5228496,21.9999998 21.9999996,17.52285 21.9999996,12 L21.9999996,12.0000004 C21.9999996,6.47715044 17.5228496,2.00000044 11.9999996,2.00000044 L12,2 Z M16.706,16.706 L16.706,16.706 C16.334634,17.077411 15.732494,17.077449 15.36108,16.7060829 C15.3610523,16.7060552 15.3610247,16.7060276 15.3609971,16.706 L11.9849971,13.33 L8.60899707,16.706 L8.60899706,16.706 C8.24938506,17.087286 7.64876806,17.104855 7.26748706,16.7452429 C6.88620106,16.3856309 6.86863206,15.7850139 7.22824416,15.4037329 C7.24110156,15.3901006 7.25435996,15.3768521 7.26800186,15.3640048 L10.6440019,11.9880048 L7.26800186,8.61200479 L7.26800181,8.61200474 C6.88644781,8.25267674 6.86843081,7.65207274 7.22775901,7.27051474 C7.58708701,6.88896074 8.18769101,6.87094374 8.56924901,7.23027194 C8.58289091,7.24311924 8.59614931,7.25636774 8.60900671,7.27000004 L11.9850067,10.646 L15.3610067,7.27000004 L15.3610068,7.26999998 C15.7273298,6.89515698 16.3281638,6.88824998 16.7030068,7.25457288 C17.0778498,7.62089588 17.0847568,8.22172988 16.7184339,8.59657288 C16.7133507,8.60177424 16.708208,8.60691698 16.7030067,8.61200008 L13.3270067,11.9880001 L16.7030067,15.3640001 L16.7030067,15.3640001 C17.0738337,15.7339981 17.0751767,16.3343481 16.7060067,16.7060001 L16.706,16.706 Z" id="Shape"></path>
            </g>
        </g>
    </g>
</svg>