<?xml version="1.0" encoding="UTF-8"?>
<svg width="24px" height="24px" viewBox="0 0 24 24" version="1.1" xmlns="http://www.w3.org/2000/svg" xmlns:xlink="http://www.w3.org/1999/xlink">
    <!-- Generator: Sketch 42 (36781) - http://www.bohemiancoding.com/sketch -->
    <title>checkmark</title>
    <desc>Created with Sketch.</desc>
    <defs></defs>
    <g id="Page-1" stroke="none" stroke-width="1" fill="none" fill-rule="evenodd">
        <g id="checkmark" transform="translate(-1.000000, 0.000000)" fill="#50E3C2">
            <g id="Group">
                <path d="M13,23.9998 L12.9999994,23.9998 C6.37258944,24.0104622 0.991399436,18.64653 0.980699436,12.0191 C0.970037236,5.39169 6.33396944,0.0105000009 12.9613994,-0.000199999092 C14.0977294,-0.00202813909 15.2285594,0.157555001 16.3200094,0.473768001 L15.2400094,2.261768 L15.2400095,2.26176801 C9.8574995,1.02464801 4.4912095,4.38515801 3.2541095,9.76766801 C2.0169895,15.150178 5.3774995,20.516468 10.7600095,21.753568 C16.1425195,22.990688 21.5088095,19.630178 22.7459095,14.247668 C22.9153645,13.510396 23.0006105,12.756278 23.0000135,11.999778 L23.0000135,11.9989625 C23.0000135,10.8554625 22.8002515,9.72076247 22.4097345,8.64601247 L23.6797345,6.53801247 L23.6797346,6.53801265 C26.7006046,12.4319427 24.3715266,19.6588127 18.4775946,22.6797127 C16.7824846,23.5485217 14.9048046,24.0010427 13.0000146,23.9998027 L13,23.9998 Z M13.92,15.3688 L13.92,15.3688 C13.874689,15.502358 13.799438,15.623786 13.7,15.7238 L13.7,15.7238 C13.511333,15.914285 13.246776,16.009452 12.98,15.9828 L12.98,15.9828 C12.55162,16.0126959 12.160306,15.740025 12.04,15.3278 L8.21999997,11.5098 L8.21999993,11.5098 C7.89009893,11.138007 7.92405793,10.569171 8.29585113,10.23927 C8.63646213,9.93703696 9.14915113,9.93683496 9.49000113,10.2388004 L12.7400011,13.4898004 L20.1300011,2.51580037 L20.1300012,2.51580029 C20.3948642,2.03117029 21.0024482,1.85301429 21.4870812,2.11787729 C21.4947786,2.12208413 21.5024203,2.12639206 21.5100044,2.13079999 L21.5100043,2.13079997 C21.9926873,2.42862297 22.1520023,3.05570297 21.8700043,3.54779997 L13.92,15.3688 Z" id="Shape"></path>
            </g>
        </g>
    </g>
</svg>