<?xml version="1.0" encoding="UTF-8"?>
<svg width="24px" height="18px" viewBox="0 0 24 18" version="1.1" xmlns="http://www.w3.org/2000/svg" xmlns:xlink="http://www.w3.org/1999/xlink">
    <!-- Generator: Sketch 42 (36781) - http://www.bohemiancoding.com/sketch -->
    <title>logo-youtube</title>
    <desc>Created with Sketch.</desc>
    <defs></defs>
    <g id="Page-1" stroke="none" stroke-width="1" fill="none" fill-rule="evenodd">
        <g id="logo-youtube" fill-rule="nonzero" fill="#FFFFFF">
            <g id="Group">
                <path d="M20.9299999,0.669997 L18.9999999,0.439997 L19.0000034,0.439997431 C14.3510634,-0.135279569 9.64894343,-0.135279569 5.00000343,0.439996569 L3.10000343,0.679996569 L3.10000331,0.679996583 C1.33830331,0.887176583 0.00807331153,2.37617658 3.3115333e-06,4.14999658 L3.3115333e-06,13.8499966 L3.2571765e-06,13.8499811 C0.00618362718,15.6136811 1.32018326,17.0989011 3.06998326,17.3199911 L4.96998326,17.5599911 L4.9699812,17.5599908 C7.3020112,17.8514458 9.6498312,17.9983928 12.0000012,17.9999928 L12.0000024,17.9999928 C14.3401424,17.9971589 16.6778924,17.8502148 18.9999724,17.5599958 L20.8999724,17.3199958 L20.8999723,17.3199958 C22.6616823,17.1128268 23.9919223,15.6238258 24.0000023,13.8499958 L24.0000023,4.14999583 L24.0000025,4.15020933 C23.9989455,2.38269933 22.6837725,0.89169933 20.9302125,0.67001933 L20.9299999,0.669997 Z M16.7699999,9.419997 L9.76999995,13.919997 L9.76999993,13.919997 C9.68952313,13.9719806 9.59580593,13.9997487 9.49999993,13.999997 L9.4999999,13.999997 C9.2238579,13.999997 8.9999999,13.776139 8.9999999,13.499997 L8.9999999,13.499997 L8.9999999,4.49999701 L8.9999999,4.50000121 C9.00045711,4.22385921 9.2246849,4.00037221 9.5008269,4.00083021 C9.5962666,4.00098824 9.6896679,4.02845821 9.7699959,4.07999521 L16.7699959,8.57999521 L16.7699959,8.57999523 C17.0019559,8.72982623 17.0685339,9.03932923 16.9187029,9.27128823 C16.8802369,9.33083903 16.8295469,9.38152923 16.7699959,9.41999523 L16.7699999,9.419997 Z" id="Shape"></path>
            </g>
        </g>
    </g>
</svg>