<?xml version="1.0" encoding="UTF-8"?>
<svg width="22px" height="22px" viewBox="0 0 22 22" version="1.1" xmlns="http://www.w3.org/2000/svg" xmlns:xlink="http://www.w3.org/1999/xlink">
    <!-- Generator: Sketch 42 (36781) - http://www.bohemiancoding.com/sketch -->
    <title>logo-facebook</title>
    <desc>Created with Sketch.</desc>
    <defs></defs>
    <g id="Page-1" stroke="none" stroke-width="1" fill="none" fill-rule="evenodd">
        <g id="logo-facebook" fill-rule="nonzero" fill="#FFFFFF">
            <g id="Group">
                <path d="M20,0 L2,0 L1.99999991,3.55271e-15 C0.895429913,4.82823036e-08 -8.74228001e-08,0.895431 -8.74228001e-08,2 L-8.74228001e-08,2 L-8.74228001e-08,20 L-8.74227788e-08,19.9999997 C-2.54207779e-07,21.1045697 0.895429913,21.9999997 1.99999991,21.9999997 L9.49999991,21.9999997 L9.49999989,21.9999997 C9.77614189,21.9999997 9.99999989,21.7761417 9.99999989,21.4999997 L9.99999989,14.4999997 L9.99999989,14.4999997 C9.99999989,14.2238577 9.77614189,13.9999997 9.49999989,13.9999997 L8.49999989,13.9999997 L8.49999987,13.9999997 C8.22385787,13.9999997 7.99999987,13.7761417 7.99999987,13.4999997 L7.99999987,13.4999997 L7.99999987,10.4999997 L7.99999987,10.4999998 C7.99999983,10.2238578 8.22385787,9.99999977 8.49999987,9.99999977 L9.49999987,9.99999977 L9.49999985,9.99999977 C9.77614185,9.99999979 9.99999985,9.77614177 9.99999985,9.49999977 L9.99999985,8.49999977 L9.99999985,8.50000043 C9.99999947,6.01472043 12.0147198,4.00000043 14.4999998,4.00000043 C14.5,4.00000043 14.5000001,4.00000043 14.5000002,4.00000043 L17.5000002,4.00000043 L17.5000002,4.00000043 C17.7761422,4.00000042 18.0000002,4.22385843 18.0000002,4.50000043 L18.0000002,7.50000043 L18.0000002,7.50000043 C18.0000002,7.77614243 17.7761422,8.00000043 17.5000002,8.00000043 L14.5000002,8.00000043 L14.5000002,8.00000043 C14.2238582,8.00000044 14.0000002,8.22385843 14.0000002,8.50000043 L14.0000002,8.50000043 L14.0000002,9.50000043 L14.0000002,9.50000051 C14.0000002,9.77614251 14.2238582,10.0000005 14.5000002,10.0000005 L17.5000002,10.0000005 L17.5000002,10.0000005 C17.7761352,10.0019647 17.9983952,10.2274085 17.9964312,10.5035445 C17.996249,10.529157 17.994099,10.5547176 17.9900003,10.5800007 L17.4900003,13.5800007 L17.4900003,13.5800006 C17.4509792,13.8207796 17.2439153,13.9982636 17.0000013,14.0000006 L14.5000013,14.0000006 L14.5000013,14.0000006 C14.2238593,14.0000006 14.0000013,14.2238586 14.0000013,14.5000006 L14.0000013,14.5000006 L14.0000013,21.5000006 L14.0000013,21.5000007 C14.0000013,21.7761427 14.2238593,22.0000007 14.5000013,22.0000007 L20.0000013,22.0000007 L20.0000012,22.0000007 C21.1045712,22.0000007 22.0000012,21.1045707 22.0000012,20.0000007 L22.0000012,2.00000068 L22.0000012,2.00000068 C22.0000012,0.895430677 21.1045702,6.7672547e-07 20.0000012,6.7672547e-07 L20,0 Z" id="Shape"></path>
            </g>
        </g>
    </g>
</svg>