<?xml version="1.0" encoding="UTF-8"?>
<svg width="310px" height="74px" viewBox="0 0 310 74" version="1.1" xmlns="http://www.w3.org/2000/svg" xmlns:xlink="http://www.w3.org/1999/xlink">
    <!-- Generator: Sketch 42 (36781) - http://www.bohemiancoding.com/sketch -->
    <title>logo_slotheroo</title>
    <desc>Created with Sketch.</desc>
    <defs>
        <polygon id="path-1" points="0 35.4037554 0 70.5 75 70.5 75 35.4037554 75 0.30751079 0 0.30751079"></polygon>
    </defs>
    <g id="Page-1" stroke="none" stroke-width="1" fill="none" fill-rule="evenodd">
        <g id="Group" transform="translate(1.000000, 1.000000)">
            <g id="sloth">
                <g id="Group-3" transform="translate(0.000000, 0.192350)">
                    <mask id="mask-2" fill="white">
                        <use xlink:href="#path-1"></use>
                    </mask>
                    <g id="Clip-2"></g>
                    <path d="M75,35.5959 C75,54.8739 58.2105,70.5009 37.5,70.5009 C16.7895,70.5009 0,54.8739 0,35.5959 C0,34.0509 0.108,32.5059 0.3255,30.9729 C1.161,25.0929 3.639,19.4529 7.458,14.7039 C9.3285,12.3774 11.511,10.2684 13.938,8.4399 C14.6655,7.8924 17.205,5.9589 17.8365,5.5914 C18.96,4.9374 20.085,4.2909 21.2115,3.6489 C22.3785,2.9844 23.4585,2.1534 24.8235,1.9449 C25.035,1.9119 25.257,1.8939 25.464,1.9569 C25.668,2.0184 25.857,2.1789 25.9005,2.3904 C25.9185,2.4894 25.9065,2.5944 25.938,2.6889 C25.998,2.8689 26.208,2.9619 26.3955,2.9514 C26.5845,2.9409 26.7585,2.8509 26.925,2.7624 C27.702,2.3484 33.1395,-0.9006 33.603,0.7929 C33.6495,0.9624 33.621,1.1469 33.6825,1.3119 C33.774,1.5594 34.0485,1.6974 34.3125,1.7079 C35.0745,1.7349 35.8575,1.3194 36.6075,1.2129 C38.2815,0.9729 40.1355,0.9039 41.8185,1.0479 C44.3655,1.2654 46.887,1.8324 49.3335,2.5689 C53.04,3.6684 56.5875,5.3184 59.7795,7.5159 C69.279,14.0574 75,24.5964 75,35.5959" id="Fill-1" fill="#000000" mask="url(#mask-2)"></path>
                </g>
                <path d="M57.98445,32.8856 C59.40345,32.8856 60.82395,32.5616 62.11545,31.8956 C62.72895,31.5791 62.97045,30.8246 62.65395,30.2111 C62.33595,29.5976 61.58295,29.3576 60.96945,29.6741 C60.04995,30.1481 59.02395,30.3851 57.98445,30.3851 C56.51145,30.3866 55.01445,29.9081 53.76945,28.9781 C53.21595,28.5641 52.43445,28.6766 52.01895,29.2301 C51.60645,29.7836 51.71895,30.5666 52.27245,30.9791 C53.95695,32.2391 55.97445,32.8856 57.98445,32.8856" id="Fill-4" fill="#FFFFFF"></path>
                <path d="M18.4218,32.8856 C20.4318,32.8856 22.4493,32.2391 24.1338,30.9791 C24.6873,30.5666 24.7998,29.7836 24.3873,29.2301 C23.9718,28.6766 23.1903,28.5641 22.6368,28.9781 C21.3918,29.9081 19.8948,30.3866 18.4218,30.3851 C17.3823,30.3851 16.3563,30.1481 15.4368,29.6741 C14.8233,29.3576 14.0703,29.5976 13.7523,30.2111 C13.4358,30.8246 13.6773,31.5791 14.2908,31.8956 C15.5823,32.5616 17.0028,32.8856 18.4218,32.8856" id="Fill-6" fill="#FFFFFF"></path>
                <path d="M53.98395,41.9648 C53.42895,42.7463 52.75245,43.4363 52.00695,44.0498 C51.26145,44.6618 50.44395,45.1973 49.59945,45.6653 C47.90745,46.5968 46.10595,47.2553 44.49645,47.6528 C42.56595,48.1253 40.60245,48.3083 38.65845,48.3083 C37.02045,48.3083 35.39595,48.1793 33.81195,47.9783 C31.77795,47.7203 29.63595,47.1038 27.62445,46.1513 C25.61445,45.1973 23.73195,43.9043 22.25895,42.2558 C21.79845,41.7413 21.84345,40.9508 22.35945,40.4918 C22.87395,40.0313 23.66445,40.0763 24.12345,40.5923 C25.31745,41.9318 26.92995,43.0568 28.69545,43.8923 C30.45795,44.7293 32.37045,45.2768 34.12545,45.4973 C35.63295,45.6878 37.15395,45.8093 38.65845,45.8093 C40.44645,45.8093 42.20595,45.6398 43.89945,45.2243 C44.95245,44.9663 46.12995,44.5673 47.26845,44.0423 C48.40845,43.5173 49.51095,42.8648 50.41995,42.1178 C51.02595,41.6198 51.54645,41.0798 51.94695,40.5158 C52.34595,39.9533 53.12745,39.8213 53.68995,40.2218 C54.25245,40.6208 54.38445,41.4023 53.98395,41.9648 M34.26045,30.2243 C35.11845,29.5538 36.06495,29.1893 37.03095,29.0768 C38.68245,28.8818 40.23795,29.0843 41.55045,30.1838 C42.73995,31.1798 43.86945,33.1838 43.21095,34.7708 C42.96045,35.3783 41.95395,36.0773 41.35395,35.5538 C41.12295,35.3513 40.98495,35.0438 40.76145,34.8323 C40.41645,34.5068 39.87345,34.4648 39.48945,34.7318 C38.64195,35.3228 38.20245,35.4338 37.35945,34.8053 C36.74745,34.3508 35.87295,34.2068 35.38695,34.9958 C34.83945,35.8868 33.70995,35.6633 33.03045,34.9028 C31.68795,33.3983 33.03195,31.1828 34.26045,30.2243 M63.80895,43.2053 C61.97595,41.5778 60.19395,39.8348 58.10145,38.5823 L58.01445,38.5298 C54.98745,36.7628 51.16995,36.6173 48.37095,34.4273 C47.00745,33.3623 45.67995,31.3973 45.73245,29.5898 C45.79695,27.3818 47.22045,25.2263 49.17495,24.2498 C51.97695,22.8518 55.58145,23.3528 58.41495,24.4238 C58.66545,24.5183 58.91595,24.6173 59.16495,24.7163 C60.89145,25.4093 62.66145,25.9868 64.41795,26.5973 C64.36095,26.4368 64.30095,26.2763 64.24095,26.1158 C62.98245,22.8233 61.03695,19.7828 58.55745,17.1668 C55.80045,14.2583 52.22895,11.2883 48.00195,10.7453 C47.70945,10.7078 47.40945,10.6718 47.12745,10.7468 C46.19145,10.9928 46.79895,11.9318 45.46545,11.9138 C44.30445,11.8988 43.38645,11.2178 42.38595,10.7183 C42.02595,10.5383 41.65395,10.3508 41.24895,10.3283 C40.08045,10.2623 40.53345,11.4608 39.72345,11.6558 C38.70645,11.9018 37.19445,10.9778 36.30345,10.6238 C34.91895,10.0748 33.19095,9.4463 31.66395,9.4388 C29.22495,9.4298 26.68995,10.5548 24.61845,11.6513 C22.30395,12.8753 20.22495,14.4668 18.33195,16.2038 C16.55445,17.8343 15.01245,19.6898 13.75545,21.6998 C12.78195,23.2568 11.98395,24.9053 11.36895,26.6123 C13.14045,25.9958 14.92395,25.4138 16.66545,24.7163 C16.91295,24.6173 17.16345,24.5183 17.41545,24.4238 C20.24745,23.3528 23.85195,22.8518 26.65395,24.2498 C28.60845,25.2263 30.03195,27.3818 30.09645,29.5898 C30.14895,31.3973 28.82295,33.3623 27.45795,34.4273 C24.65895,36.6173 20.84145,36.7628 17.81745,38.5298 C17.78595,38.5478 17.75745,38.5643 17.72745,38.5823 C15.63645,39.8348 13.85295,41.5778 12.01995,43.2053 C11.88495,43.3253 11.71095,43.4978 11.51895,43.6838 C15.37995,53.8058 25.72395,61.0523 37.88145,61.0523 C50.05695,61.0523 60.41445,53.7818 64.26045,43.6358 C64.08795,43.4678 63.93345,43.3148 63.80895,43.2053" id="Fill-8" fill="#FFFFFF"></path>
            </g>
            <path d="M102.85,38.95 C101.383326,38.4499975 100.050006,37.9416693 98.85,37.425 C97.649994,36.9083307 96.616671,36.283337 95.75,35.55 C94.883329,34.816663 94.2083358,33.9416717 93.725,32.925 C93.2416642,31.9083282 93,30.666674 93,29.2 C93,26.3666525 94.0916558,24.1000085 96.275,22.4 C98.4583442,20.6999915 101.516647,19.85 105.45,19.85 C106.883341,19.85 108.216661,19.949999 109.45,20.15 C110.68334,20.350001 111.741662,20.6583313 112.625,21.075 C113.508338,21.4916688 114.199997,22.0249967 114.7,22.675 C115.200003,23.3250033 115.45,24.083329 115.45,24.95 C115.45,25.816671 115.250002,26.5583302 114.85,27.175 C114.449998,27.7916697 113.966669,28.3166645 113.4,28.75 C112.666663,28.283331 111.68334,27.8750017 110.45,27.525 C109.216661,27.1749983 107.866674,27 106.4,27 C104.899992,27 103.800004,27.2083313 103.1,27.625 C102.399997,28.0416687 102.05,28.5666635 102.05,29.2 C102.05,29.7000025 102.266665,30.1083318 102.7,30.425 C103.133336,30.7416683 103.783329,31.033332 104.65,31.3 L107.3,32.15 C110.433349,33.150005 112.841658,34.4249923 114.525,35.975 C116.208342,37.5250078 117.05,39.63332 117.05,42.3 C117.05,45.1333475 115.933345,47.4249912 113.7,49.175 C111.466656,50.9250087 108.183355,51.8 103.85,51.8 C102.316659,51.8 100.891673,51.6750013 99.575,51.425 C98.2583267,51.1749988 97.1083383,50.8083357 96.125,50.325 C95.1416617,49.8416643 94.3750027,49.2416702 93.825,48.525 C93.2749972,47.8083297 93,46.983338 93,46.05 C93,45.0833285 93.2833305,44.2583368 93.85,43.575 C94.4166695,42.8916633 95.03333,42.3666685 95.7,42 C96.633338,42.733337 97.7749932,43.366664 99.125,43.9 C100.475007,44.433336 101.949992,44.7 103.55,44.7 C105.183341,44.7 106.33333,44.4500025 107,43.95 C107.66667,43.4499975 108,42.86667 108,42.2 C108,41.53333 107.733336,41.0250018 107.2,40.675 C106.666664,40.3249982 105.916672,39.983335 104.95,39.65 L102.85,38.95 Z M128.133333,50.95 C127.766665,51.016667 127.225003,51.1083328 126.508333,51.225 C125.791663,51.3416673 125.06667,51.4 124.333333,51.4 C123.599996,51.4 122.941669,51.3500005 122.358333,51.25 C121.774997,51.1499995 121.283335,50.9500015 120.883333,50.65 C120.483331,50.3499985 120.175001,49.9416693 119.958333,49.425 C119.741665,48.9083307 119.633333,48.2333375 119.633333,47.4 L119.633333,18.4 C120.000002,18.333333 120.541663,18.2416673 121.258333,18.125 C121.975003,18.0083327 122.699996,17.95 123.433333,17.95 C124.16667,17.95 124.824997,17.9999995 125.408333,18.1 C125.991669,18.2000005 126.483331,18.3999985 126.883333,18.7 C127.283335,19.0000015 127.591665,19.4083308 127.808333,19.925 C128.025001,20.4416693 128.133333,21.1166625 128.133333,21.95 L128.133333,50.95 Z M156.966666,38.85 C156.966666,40.916677 156.650003,42.7583252 156.016666,44.375 C155.38333,45.9916747 154.491672,47.3499945 153.341666,48.45 C152.191661,49.5500055 150.816674,50.3833305 149.216666,50.95 C147.616658,51.5166695 145.833343,51.8 143.866666,51.8 C141.89999,51.8 140.116674,51.500003 138.516666,50.9 C136.916658,50.299997 135.541672,49.4416722 134.391666,48.325 C133.241661,47.2083277 132.350003,45.850008 131.716666,44.25 C131.08333,42.649992 130.766666,40.85001 130.766666,38.85 C130.766666,36.8833235 131.08333,35.100008 131.716666,33.5 C132.350003,31.899992 133.241661,30.5416722 134.391666,29.425 C135.541672,28.3083277 136.916658,27.450003 138.516666,26.85 C140.116674,26.249997 141.89999,25.95 143.866666,25.95 C145.833343,25.95 147.616658,26.2583302 149.216666,26.875 C150.816674,27.4916697 152.191661,28.3583277 153.341666,29.475 C154.491672,30.5916722 155.38333,31.949992 156.016666,33.55 C156.650003,35.150008 156.966666,36.916657 156.966666,38.85 Z M139.466666,38.85 C139.466666,40.8833435 139.858329,42.4416612 140.641666,43.525 C141.425004,44.6083388 142.516659,45.15 143.916666,45.15 C145.316673,45.15 146.391663,44.6000055 147.141666,43.5 C147.89167,42.3999945 148.266666,40.85001 148.266666,38.85 C148.266666,36.84999 147.883337,35.3083387 147.116666,34.225 C146.349996,33.1416612 145.266673,32.6 143.866666,32.6 C142.466659,32.6 141.383337,33.1416612 140.616666,34.225 C139.849996,35.3083387 139.466666,36.84999 139.466666,38.85 Z M167.949999,42.65 C167.949999,43.516671 168.224997,44.1333315 168.774999,44.5 C169.325002,44.8666685 170.099994,45.05 171.099999,45.05 C171.600002,45.05 172.116663,45.0083337 172.649999,44.925 C173.183335,44.8416662 173.649997,44.733334 174.049999,44.6 C174.350001,44.9666685 174.608332,45.3749977 174.824999,45.825 C175.041667,46.2750022 175.149999,46.8166635 175.149999,47.45 C175.149999,48.716673 174.675004,49.749996 173.724999,50.55 C172.774995,51.350004 171.100011,51.75 168.699999,51.75 C165.766651,51.75 163.508341,51.08334 161.924999,49.75 C160.341658,48.41666 159.549999,46.250015 159.549999,43.25 L159.549999,21.85 C159.916668,21.7499995 160.441663,21.6416672 161.124999,21.525 C161.808336,21.4083327 162.533329,21.35 163.299999,21.35 C164.766673,21.35 165.908329,21.6083307 166.724999,22.125 C167.54167,22.6416693 167.949999,23.733325 167.949999,25.4 L167.949999,28.6 L174.499999,28.6 C174.7,28.9666685 174.891665,29.4249972 175.074999,29.975 C175.258334,30.5250027 175.349999,31.13333 175.349999,31.8 C175.349999,32.9666725 175.091669,33.8083307 174.574999,34.325 C174.05833,34.8416692 173.36667,35.1 172.499999,35.1 L167.949999,35.1 L167.949999,42.65 Z M201.783333,50.95 C201.449998,51.0500005 200.925003,51.1499995 200.208333,51.25 C199.491662,51.3500005 198.750003,51.4 197.983333,51.4 C197.249996,51.4 196.591669,51.3500005 196.008333,51.25 C195.424996,51.1499995 194.933335,50.9500015 194.533333,50.65 C194.133331,50.3499985 193.825,49.9416693 193.608333,49.425 C193.391665,48.9083307 193.283333,48.2333375 193.283333,47.4 L193.283333,36.3 C193.283333,34.9333265 192.941669,33.9750028 192.258333,33.425 C191.574996,32.8749972 190.733338,32.6 189.733333,32.6 C189.066663,32.6 188.433336,32.6833325 187.833333,32.85 C187.23333,33.0166675 186.750001,33.2166655 186.383333,33.45 L186.383333,50.95 C186.049998,51.0500005 185.525003,51.1499995 184.808333,51.25 C184.091662,51.3500005 183.350003,51.4 182.583333,51.4 C181.849996,51.4 181.191669,51.3500005 180.608333,51.25 C180.024996,51.1499995 179.533335,50.9500015 179.133333,50.65 C178.733331,50.3499985 178.425,49.9416693 178.208333,49.425 C177.991665,48.9083307 177.883333,48.2333375 177.883333,47.4 L177.883333,18.4 C178.250001,18.333333 178.791662,18.2416673 179.508333,18.125 C180.225003,18.0083327 180.949996,17.95 181.683333,17.95 C182.41667,17.95 183.074996,17.9999995 183.658333,18.1 C184.241669,18.2000005 184.733331,18.3999985 185.133333,18.7 C185.533335,19.0000015 185.841665,19.4083308 186.058333,19.925 C186.275,20.4416693 186.383333,21.1166625 186.383333,21.95 L186.383333,26.85 C186.816668,26.6833325 187.474995,26.4916677 188.358333,26.275 C189.24167,26.0583323 190.216661,25.95 191.283333,25.95 C194.583349,25.95 197.158323,26.7749917 199.008333,28.425 C200.858342,30.0750082 201.783333,32.533317 201.783333,35.8 L201.783333,50.95 Z M218.216666,51.8 C216.249989,51.8 214.425007,51.5250027 212.741666,50.975 C211.058324,50.4249972 209.591672,49.6000055 208.341666,48.5 C207.091659,47.3999945 206.108336,46.016675 205.391666,44.35 C204.674995,42.683325 204.316666,40.7333445 204.316666,38.5 C204.316666,36.299989 204.674995,34.4083413 205.391666,32.825 C206.108336,31.2416587 207.049993,29.9416717 208.216666,28.925 C209.383338,27.9083283 210.716658,27.1583358 212.216666,26.675 C213.716673,26.1916642 215.249991,25.95 216.816666,25.95 C218.583341,25.95 220.191658,26.216664 221.641666,26.75 C223.091673,27.283336 224.34166,28.016662 225.391666,28.95 C226.441671,29.883338 227.258329,30.9999935 227.841666,32.3 C228.425002,33.6000065 228.716666,35.016659 228.716666,36.55 C228.716666,37.683339 228.400002,38.549997 227.766666,39.15 C227.133329,39.750003 226.250005,40.1333325 225.116666,40.3 L212.766666,42.15 C213.133334,43.2500055 213.883327,44.0749972 215.016666,44.625 C216.150005,45.1750027 217.449992,45.45 218.916666,45.45 C220.283339,45.45 221.574993,45.2750017 222.791666,44.925 C224.008338,44.5749982 224.999995,44.166669 225.766666,43.7 C226.300002,44.033335 226.749997,44.499997 227.116666,45.1 C227.483334,45.700003 227.666666,46.33333 227.666666,47 C227.666666,48.5000075 226.966673,49.616663 225.566666,50.35 C224.499994,50.9166695 223.300006,51.299999 221.966666,51.5 C220.633326,51.700001 219.383338,51.8 218.216666,51.8 Z M216.816666,32.15 C216.016662,32.15 215.325002,32.283332 214.741666,32.55 C214.158329,32.816668 213.683334,33.1583313 213.316666,33.575 C212.949997,33.9916688 212.675,34.4583308 212.491666,34.975 C212.308331,35.4916692 212.199999,36.016664 212.166666,36.55 L220.716666,35.15 C220.616665,34.48333 220.250002,33.81667 219.616666,33.15 C218.983329,32.48333 218.050005,32.15 216.816666,32.15 Z M239.649999,50.95 C239.316664,51.0500005 238.791669,51.1499995 238.074999,51.25 C237.358329,51.3500005 236.616669,51.4 235.849999,51.4 C235.116662,51.4 234.458335,51.3500005 233.874999,51.25 C233.291663,51.1499995 232.800001,50.9500015 232.399999,50.65 C231.999997,50.3499985 231.691667,49.9416693 231.474999,49.425 C231.258331,48.9083307 231.149999,48.2333375 231.149999,47.4 L231.149999,32.4 C231.149999,31.6333295 231.291664,30.9750028 231.574999,30.425 C231.858334,29.8749972 232.266663,29.3833355 232.799999,28.95 C233.333335,28.5166645 233.991662,28.1250018 234.774999,27.775 C235.558336,27.4249983 236.399994,27.116668 237.299999,26.85 C238.200003,26.583332 239.133327,26.3750007 240.099999,26.225 C241.06667,26.0749992 242.033327,26 242.999999,26 C244.600007,26 245.866661,26.3083302 246.799999,26.925 C247.733337,27.5416697 248.199999,28.549993 248.199999,29.95 C248.199999,30.416669 248.133333,30.8749977 247.999999,31.325 C247.866665,31.7750023 247.7,32.1833315 247.499999,32.55 C246.799995,32.55 246.083336,32.583333 245.349999,32.65 C244.616662,32.716667 243.900002,32.816666 243.199999,32.95 C242.499995,33.083334 241.841669,33.2249992 241.224999,33.375 C240.608329,33.5250007 240.083334,33.699999 239.649999,33.9 L239.649999,50.95 Z M274.233332,38.85 C274.233332,40.916677 273.916668,42.7583252 273.283332,44.375 C272.649995,45.9916747 271.758338,47.3499945 270.608332,48.45 C269.458326,49.5500055 268.08334,50.3833305 266.483332,50.95 C264.883324,51.5166695 263.100008,51.8 261.133332,51.8 C259.166655,51.8 257.38334,51.500003 255.783332,50.9 C254.183324,50.299997 252.808338,49.4416722 251.658332,48.325 C250.508326,47.2083277 249.616668,45.850008 248.983332,44.25 C248.349995,42.649992 248.033332,40.85001 248.033332,38.85 C248.033332,36.8833235 248.349995,35.100008 248.983332,33.5 C249.616668,31.899992 250.508326,30.5416722 251.658332,29.425 C252.808338,28.3083277 254.183324,27.450003 255.783332,26.85 C257.38334,26.249997 259.166655,25.95 261.133332,25.95 C263.100008,25.95 264.883324,26.2583302 266.483332,26.875 C268.08334,27.4916697 269.458326,28.3583277 270.608332,29.475 C271.758338,30.5916722 272.649995,31.949992 273.283332,33.55 C273.916668,35.150008 274.233332,36.916657 274.233332,38.85 Z M256.733332,38.85 C256.733332,40.8833435 257.124995,42.4416612 257.908332,43.525 C258.691669,44.6083388 259.783325,45.15 261.183332,45.15 C262.583339,45.15 263.658328,44.6000055 264.408332,43.5 C265.158336,42.3999945 265.533332,40.85001 265.533332,38.85 C265.533332,36.84999 265.150002,35.3083387 264.383332,34.225 C263.616661,33.1416612 262.533339,32.6 261.133332,32.6 C259.733325,32.6 258.650002,33.1416612 257.883332,34.225 C257.116661,35.3083387 256.733332,36.84999 256.733332,38.85 Z M301.866665,38.85 C301.866665,40.916677 301.550002,42.7583252 300.916665,44.375 C300.283329,45.9916747 299.391671,47.3499945 298.241665,48.45 C297.091659,49.5500055 295.716673,50.3833305 294.116665,50.95 C292.516657,51.5166695 290.733342,51.8 288.766665,51.8 C286.799989,51.8 285.016673,51.500003 283.416665,50.9 C281.816657,50.299997 280.441671,49.4416722 279.291665,48.325 C278.141659,47.2083277 277.250002,45.850008 276.616665,44.25 C275.983329,42.649992 275.666665,40.85001 275.666665,38.85 C275.666665,36.8833235 275.983329,35.100008 276.616665,33.5 C277.250002,31.899992 278.141659,30.5416722 279.291665,29.425 C280.441671,28.3083277 281.816657,27.450003 283.416665,26.85 C285.016673,26.249997 286.799989,25.95 288.766665,25.95 C290.733342,25.95 292.516657,26.2583302 294.116665,26.875 C295.716673,27.4916697 297.091659,28.3583277 298.241665,29.475 C299.391671,30.5916722 300.283329,31.949992 300.916665,33.55 C301.550002,35.150008 301.866665,36.916657 301.866665,38.85 Z M284.366665,38.85 C284.366665,40.8833435 284.758328,42.4416612 285.541665,43.525 C286.325002,44.6083388 287.416658,45.15 288.816665,45.15 C290.216672,45.15 291.291661,44.6000055 292.041665,43.5 C292.791669,42.3999945 293.166665,40.85001 293.166665,38.85 C293.166665,36.84999 292.783336,35.3083387 292.016665,34.225 C291.249995,33.1416612 290.166672,32.6 288.766665,32.6 C287.366658,32.6 286.283336,33.1416612 285.516665,34.225 C284.749995,35.3083387 284.366665,36.84999 284.366665,38.85 Z" id="Slotheroo" fill="#FFFFFF"></path>
        </g>
    </g>
</svg>