<?xml version="1.0" encoding="UTF-8"?>
<svg width="310px" height="74px" viewBox="0 0 310 74" version="1.1" xmlns="http://www.w3.org/2000/svg" xmlns:xlink="http://www.w3.org/1999/xlink">
    <!-- Generator: Sketch 42 (36781) - http://www.bohemiancoding.com/sketch -->
    <title>logo_slotheroo</title>
    <desc>Created with Sketch.</desc>
    <defs>
        <polygon id="path-1" points="0 35.4037554 0 70.5 75 70.5 75 35.4037554 75 0.30751079 0 0.30751079"></polygon>
    </defs>
    <g id="Page-1" stroke="none" stroke-width="1" fill="none" fill-rule="evenodd">
        <g id="Group" transform="translate(1.000000, 1.000000)">
            <g id="sloth">
                <g id="Group-3" transform="translate(0.000000, 0.192350)">
                    <mask id="mask-2" fill="white">
                        <use xlink:href="#path-1"></use>
                    </mask>
                    <g id="Clip-2"></g>
                    <path d="M75,35.5959 C75,54.8739 58.2105,70.5009 37.5,70.5009 C16.7895,70.5009 0,54.8739 0,35.5959 C0,34.0509 0.108,32.5059 0.3255,30.9729 C1.161,25.0929 3.639,19.4529 7.458,14.7039 C9.3285,12.3774 11.511,10.2684 13.938,8.4399 C14.6655,7.8924 17.205,5.9589 17.8365,5.5914 C18.96,4.9374 20.085,4.2909 21.2115,3.6489 C22.3785,2.9844 23.4585,2.1534 24.8235,1.9449 C25.035,1.9119 25.257,1.8939 25.464,1.9569 C25.668,2.0184 25.857,2.1789 25.9005,2.3904 C25.9185,2.4894 25.9065,2.5944 25.938,2.6889 C25.998,2.8689 26.208,2.9619 26.3955,2.9514 C26.5845,2.9409 26.7585,2.8509 26.925,2.7624 C27.702,2.3484 33.1395,-0.9006 33.603,0.7929 C33.6495,0.9624 33.621,1.1469 33.6825,1.3119 C33.774,1.5594 34.0485,1.6974 34.3125,1.7079 C35.0745,1.7349 35.8575,1.3194 36.6075,1.2129 C38.2815,0.9729 40.1355,0.9039 41.8185,1.0479 C44.3655,1.2654 46.887,1.8324 49.3335,2.5689 C53.04,3.6684 56.5875,5.3184 59.7795,7.5159 C69.279,14.0574 75,24.5964 75,35.5959" id="Fill-1" fill="#000000" mask="url(#mask-2)"></path>
                </g>
                <path d="M57.98445,32.8856 C59.40345,32.8856 60.82395,32.5616 62.11545,31.8956 C62.72895,31.5791 62.97045,30.8246 62.65395,30.2111 C62.33595,29.5976 61.58295,29.3576 60.96945,29.6741 C60.04995,30.1481 59.02395,30.3851 57.98445,30.3851 C56.51145,30.3866 55.01445,29.9081 53.76945,28.9781 C53.21595,28.5641 52.43445,28.6766 52.01895,29.2301 C51.60645,29.7836 51.71895,30.5666 52.27245,30.9791 C53.95695,32.2391 55.97445,32.8856 57.98445,32.8856" id="Fill-4" fill="#FFFFFF"></path>
                <path d="M18.4218,32.8856 C20.4318,32.8856 22.4493,32.2391 24.1338,30.9791 C24.6873,30.5666 24.7998,29.7836 24.3873,29.2301 C23.9718,28.6766 23.1903,28.5641 22.6368,28.9781 C21.3918,29.9081 19.8948,30.3866 18.4218,30.3851 C17.3823,30.3851 16.3563,30.1481 15.4368,29.6741 C14.8233,29.3576 14.0703,29.5976 13.7523,30.2111 C13.4358,30.8246 13.6773,31.5791 14.2908,31.8956 C15.5823,32.5616 17.0028,32.8856 18.4218,32.8856" id="Fill-6" fill="#FFFFFF"></path>
                <path d="M53.98395,41.9648 C53.42895,42.7463 52.75245,43.4363 52.00695,44.0498 C51.26145,44.6618 50.44395,45.1973 49.59945,45.6653 C47.90745,46.5968 46.10595,47.2553 44.49645,47.6528 C42.56595,48.1253 40.60245,48.3083 38.65845,48.3083 C37.02045,48.3083 35.39595,48.1793 33.81195,47.9783 C31.77795,47.7203 29.63595,47.1038 27.62445,46.1513 C25.61445,45.1973 23.73195,43.9043 22.25895,42.2558 C21.79845,41.7413 21.84345,40.9508 22.35945,40.4918 C22.87395,40.0313 23.66445,40.0763 24.12345,40.5923 C25.31745,41.9318 26.92995,43.0568 28.69545,43.8923 C30.45795,44.7293 32.37045,45.2768 34.12545,45.4973 C35.63295,45.6878 37.15395,45.8093 38.65845,45.8093 C40.44645,45.8093 42.20595,45.6398 43.89945,45.2243 C44.95245,44.9663 46.12995,44.5673 47.26845,44.0423 C48.40845,43.5173 49.51095,42.8648 50.41995,42.1178 C51.02595,41.6198 51.54645,41.0798 51.94695,40.5158 C52.34595,39.9533 53.12745,39.8213 53.68995,40.2218 C54.25245,40.6208 54.38445,41.4023 53.98395,41.9648 M34.26045,30.2243 C35.11845,29.5538 36.06495,29.1893 37.03095,29.0768 C38.68245,28.8818 40.23795,29.0843 41.55045,30.1838 C42.73995,31.1798 43.86945,33.1838 43.21095,34.7708 C42.96045,35.3783 41.95395,36.0773 41.35395,35.5538 C41.12295,35.3513 40.98495,35.0438 40.76145,34.8323 C40.41645,34.5068 39.87345,34.4648 39.48945,34.7318 C38.64195,35.3228 38.20245,35.4338 37.35945,34.8053 C36.74745,34.3508 35.87295,34.2068 35.38695,34.9958 C34.83945,35.8868 33.70995,35.6633 33.03045,34.9028 C31.68795,33.3983 33.03195,31.1828 34.26045,30.2243 M63.80895,43.2053 C61.97595,41.5778 60.19395,39.8348 58.10145,38.5823 L58.01445,38.5298 C54.98745,36.7628 51.16995,36.6173 48.37095,34.4273 C47.00745,33.3623 45.67995,31.3973 45.73245,29.5898 C45.79695,27.3818 47.22045,25.2263 49.17495,24.2498 C51.97695,22.8518 55.58145,23.3528 58.41495,24.4238 C58.66545,24.5183 58.91595,24.6173 59.16495,24.7163 C60.89145,25.4093 62.66145,25.9868 64.41795,26.5973 C64.36095,26.4368 64.30095,26.2763 64.24095,26.1158 C62.98245,22.8233 61.03695,19.7828 58.55745,17.1668 C55.80045,14.2583 52.22895,11.2883 48.00195,10.7453 C47.70945,10.7078 47.40945,10.6718 47.12745,10.7468 C46.19145,10.9928 46.79895,11.9318 45.46545,11.9138 C44.30445,11.8988 43.38645,11.2178 42.38595,10.7183 C42.02595,10.5383 41.65395,10.3508 41.24895,10.3283 C40.08045,10.2623 40.53345,11.4608 39.72345,11.6558 C38.70645,11.9018 37.19445,10.9778 36.30345,10.6238 C34.91895,10.0748 33.19095,9.4463 31.66395,9.4388 C29.22495,9.4298 26.68995,10.5548 24.61845,11.6513 C22.30395,12.8753 20.22495,14.4668 18.33195,16.2038 C16.55445,17.8343 15.01245,19.6898 13.75545,21.6998 C12.78195,23.2568 11.98395,24.9053 11.36895,26.6123 C13.14045,25.9958 14.92395,25.4138 16.66545,24.7163 C16.91295,24.6173 17.16345,24.5183 17.41545,24.4238 C20.24745,23.3528 23.85195,22.8518 26.65395,24.2498 C28.60845,25.2263 30.03195,27.3818 30.09645,29.5898 C30.14895,31.3973 28.82295,33.3623 27.45795,34.4273 C24.65895,36.6173 20.84145,36.7628 17.81745,38.5298 C17.78595,38.5478 17.75745,38.5643 17.72745,38.5823 C15.63645,39.8348 13.85295,41.5778 12.01995,43.2053 C11.88495,43.3253 11.71095,43.4978 11.51895,43.6838 C15.37995,53.8058 25.72395,61.0523 37.88145,61.0523 C50.05695,61.0523 60.41445,53.7818 64.26045,43.6358 C64.08795,43.4678 63.93345,43.3148 63.80895,43.2053" id="Fill-8" fill="#FFFFFF"></path>
            </g>
            <text id="Slotheroo" font-family="OpenSans-Extrabold, Open Sans" font-size="46" font-weight="600" letter-spacing="-1.53333366" fill="#FFFFFF">
                <tspan x="91" y="51">Slotheroo</tspan>
            </text>
        </g>
    </g>
</svg>