<?xml version="1.0" encoding="UTF-8"?>
<svg width="22px" height="22px" viewBox="0 0 22 22" version="1.1" xmlns="http://www.w3.org/2000/svg" xmlns:xlink="http://www.w3.org/1999/xlink">
    <!-- Generator: Sketch 42 (36781) - http://www.bohemiancoding.com/sketch -->
    <title>logo-instagram</title>
    <desc>Created with Sketch.</desc>
    <defs></defs>
    <g id="Page-1" stroke="none" stroke-width="1" fill="none" fill-rule="evenodd">
        <g id="logo-instagram" fill-rule="nonzero" fill="#FFFFFF">
            <g id="Group">
                <path d="M15.999999,22 L5.999999,22 L5.99999874,22 C2.68628874,21.9999999 -1.262268e-06,19.31371 -1.262268e-06,16 L-1.262268e-06,16 L-1.262268e-06,6 L-1.26226793e-06,6.00000091 C-1.76262393e-06,2.68629091 2.68628874,9.05974989e-07 5.99999874,9.05974989e-07 L15.9999987,9.05974989e-07 L15.9999985,9.05974996e-07 C19.3137085,7.61127996e-07 21.9999985,2.68629091 21.9999985,6.00000091 L21.9999985,16.0000009 L21.9999985,16.0000009 C21.9999985,19.3137109 19.3137085,22.0000009 15.9999985,22.0000009 L15.999999,22 Z M5.999999,2 L5.99999883,2 C3.79085883,2.0000001 1.99999883,3.79086 1.99999883,6 L1.99999883,6 L1.99999883,16 L1.99999883,15.9999994 C1.99999849,18.2091394 3.79085883,19.9999994 5.99999883,19.9999994 L15.9999988,19.9999994 L15.9999987,19.9999994 C18.2091387,19.9999995 19.9999987,18.2091394 19.9999987,15.9999994 L19.9999987,5.9999994 L19.9999987,5.9999994 C19.9999987,3.7908594 18.2091387,1.9999994 15.9999987,1.9999994 L5.999999,2 Z" id="Shape"></path>
                <g transform="translate(5.000000, 3.000000)" id="Shape">
                    <path d="M6,14 L5.99999974,14 C2.68628974,13.9999999 -2.62268e-07,11.31371 -2.62268e-07,8 C-1.17421e-07,4.68629 2.68628974,2 5.99999974,2 C9.31370974,2.00000014 11.9999997,4.68629 11.9999997,8 L11.9999997,7.99999974 C11.9999997,11.3137097 9.31370974,13.9999997 5.99999974,13.9999997 L6,14 Z M6,4 L5.99999983,4 C3.79085983,4.0000001 1.99999983,5.79086 1.99999983,8 C1.99999992,10.20914 3.79085983,12 5.99999983,12 C8.20913983,11.9999999 9.99999983,10.20914 9.99999983,8 L9.99999983,8.00000017 C9.99999983,5.79086017 8.20913983,4.00000017 5.99999983,4.00000017 L6,4 Z"></path>
                    <path d="M12.70714,0.292894 C13.097664,0.683418 13.097664,1.316584 12.70714,1.707104 C12.316616,2.097628 11.68345,2.097628 11.29293,1.707104 C10.902406,1.31658 10.902406,0.683414 11.29293,0.292894 C11.683454,-0.09763 12.31662,-0.09763 12.70714,0.292894"></path>
                </g>
            </g>
        </g>
    </g>
</svg>