<?xml version="1.0" encoding="utf-8"?>
<!-- Generator: Adobe Illustrator 18.1.0, SVG Export Plug-In . SVG Version: 6.00 Build 0)  -->
<svg version="1.1" id="Layer_1" xmlns="http://www.w3.org/2000/svg" xmlns:xlink="http://www.w3.org/1999/xlink" x="0px" y="0px"
	 viewBox="0 0 500 500" enable-background="new 0 0 500 500" xml:space="preserve">
<path fill="#010101" d="M456.3,123.7V112c0-27.9-22.7-50.6-50.6-50.6s-50.6,22.7-50.6,50.6v49.5c-4.4-1.2-9.1-1.9-13.9-1.9
	c-13.1,0-25,5-33.9,13.1c-9-8.1-20.9-13.1-33.9-13.1c-4.8,0-9.5,0.7-13.9,1.9V50.8c0-28-22.7-50.8-50.8-50.8
	c-28,0-50.8,22.7-50.8,50.8v134.3v5v61.8l-21.3-31.9c-9.8-14.7-25.8-22.6-42.2-22.6c-9.7,0-19.5,2.8-28.1,8.6
	c-23.3,15.6-29.6,47-13.9,70.4l41.3,61.8C103.7,429.2,180.8,500,274.3,500c98.7,0,179.2-78.9,181.9-176.9L456.3,123.7L456.3,123.7z
	 M327.5,210.4c0-7.6,6.2-13.9,13.9-13.9c7.6,0,13.9,6.2,13.9,13.9v71.2c0,7.6-6.2,13.9-13.9,13.9c-7.6,0-13.9-6.2-13.9-13.9V210.4z
	 M259.6,210.4c0-7.6,6.2-13.9,13.9-13.9c7.6,0,13.9,6.2,13.9,13.9v71.2c0,7.6-6.2,13.9-13.9,13.9c-7.6,0-13.9-6.2-13.9-13.9V210.4z
	 M419.4,123.7V323c-2.7,78.3-66,141.1-144.9,141.1s-143.3-62.9-146-141.1l-45.5-67.2c-2.8-4.1-2.5-8.2-2.1-10.4
	c0.4-2.1,1.7-6.1,5.9-8.9c2.3-1.6,4.8-2.3,7.6-2.3c4.6,0,9,2.3,11.5,6.2l51.5,77.7c0.7,9.6,8.7,17.2,18.5,17.2
	c10.3,0,18.7-8.4,18.7-18.5l0,0h0.1V190.1v-5V50.8c0-7.6,6.2-13.8,13.8-13.8c7.6,0,13.8,6.2,13.8,13.8v159.4v17.1v54.1
	c0,28,22.8,50.8,50.8,50.8c13.1,0,25-5,33.9-13.1c9,8.1,20.9,13.1,33.9,13.1c27.9,0,50.4-22.4,50.8-50.2l0,0v-0.6v-71.2v-98.3
	c0-7.5,6.1-13.6,13.6-13.6c7.5,0,13.6,6.1,13.6,13.6L419.4,123.7L419.4,123.7z"/>
</svg>
