<?xml version="1.0" encoding="utf-8"?>
<!-- Generator: Adobe Illustrator 15.0.0, SVG Export Plug-In . SVG Version: 6.00 Build 0)  -->
<!DOCTYPE svg PUBLIC "-//W3C//DTD SVG 1.1//EN" "http://www.w3.org/Graphics/SVG/1.1/DTD/svg11.dtd">
<svg version="1.1" id="Layer_1" xmlns="http://www.w3.org/2000/svg" xmlns:xlink="http://www.w3.org/1999/xlink" x="0px" y="0px"
	 width="500px" height="500px" viewBox="0 0 500 500" enable-background="new 0 0 500 500" xml:space="preserve">
<path fill="#010101" d="M358.019,202.213l1.127,0.016c13.197,0,28.073-6.362,37.019-15.832l37.688-39.836
	c13.29-14.068,13.29-36.094,0.008-50.15l-37.703-39.868c-8.868-9.385-24.172-15.948-37.205-15.948h-0.194l-0.475,0.008
	l-43.913,0.734v-5.522C314.369,16.065,298.312,0,278.556,0h-47.449c-19.75,0-35.814,16.065-35.814,35.814v7.512l-88.443,1.48
	c-19.524,0.323-35.414,16.477-35.414,36.009v28.726v23.876v25.733c0,19.384,15.766,35.597,35.146,36.137l88.712,2.444v10.913H141.33
	c-13.084,0-28.504,6.641-37.493,16.146l-37.684,39.844c-13.298,14.068-13.298,36.094-0.004,50.154l37.691,39.863
	c8.984,9.506,24.404,16.143,37.489,16.143h53.962v93.391c0,19.749,16.065,35.814,35.814,35.814h47.449
	c19.757,0,35.813-16.065,35.813-35.814v-93.391h78.383c19.749,0,35.814-16.064,35.814-35.814v-33.326v-23.877v-33.319
	c0-19.749-16.065-35.814-35.814-35.814h-78.383v-7.633L358.019,202.213z M219.168,35.814c0-6.568,5.371-11.938,11.938-11.938h47.449
	c6.575,0,11.938,5.371,11.938,11.938v5.922l-71.325,1.193V35.814z M95.311,159.151v-25.733c0-6.568,0-17.309,0-23.876V80.815
	c0-6.568,5.371-12.028,11.938-12.137l251.421-4.205c0.094,0,0.187-0.004,0.28-0.004c6.536,0,15.412,3.773,19.857,8.479
	l37.695,39.856c4.508,4.772,4.508,12.575,0,17.347l-37.695,39.848c-4.398,4.659-13.15,8.351-19.663,8.351
	c-0.156,0-0.312-0.004-0.467-0.008l-251.433-6.925C100.682,171.237,95.311,165.719,95.311,159.151z M290.493,464.186
	c0,6.568-5.362,11.938-11.938,11.938h-47.449c-6.568,0-11.938-5.37-11.938-11.938v-93.391h71.325V464.186z M392.752,232.521
	c6.567,0,11.938,5.371,11.938,11.938v33.319c0,6.568,0,17.309,0,23.877v33.326c0,6.568-5.371,11.938-11.938,11.938H141.33
	c-6.567,0-15.629-3.901-20.142-8.674L83.501,298.39c-4.512-4.772-4.512-12.575,0-17.348l37.687-39.848
	c4.512-4.772,13.574-8.674,20.142-8.674H392.752z M290.493,208.645h-71.325v-10.256l71.325,1.963V208.645z"/>
</svg>
